<?xml version="1.0" encoding="UTF-8" standalone="no"?>
<!-- Created with Inkscape (http://www.inkscape.org/) -->

<svg
   xmlns:dc="http://purl.org/dc/elements/1.1/"
   xmlns:cc="http://creativecommons.org/ns#"
   xmlns:rdf="http://www.w3.org/1999/02/22-rdf-syntax-ns#"
   xmlns:svg="http://www.w3.org/2000/svg"
   xmlns="http://www.w3.org/2000/svg"
   xmlns:sodipodi="http://sodipodi.sourceforge.net/DTD/sodipodi-0.dtd"
   xmlns:inkscape="http://www.inkscape.org/namespaces/inkscape"
   width="301.18109"
   height="56.692913"
   id="svg3794"
   version="1.1"
   inkscape:version="0.48.5 r10040"
   sodipodi:docname="black_down.svg">
  <defs
     id="defs3" />
  <sodipodi:namedview
     id="base"
     pagecolor="#ffffff"
     bordercolor="#666666"
     borderopacity="1.0"
     inkscape:pageopacity="0.0"
     inkscape:pageshadow="2"
     inkscape:zoom="3.3941125"
     inkscape:cx="154.20988"
     inkscape:cy="25.212798"
     inkscape:document-units="mm"
     inkscape:current-layer="layer1"
     showgrid="false"
     inkscape:window-width="1366"
     inkscape:window-height="702"
     inkscape:window-x="0"
     inkscape:window-y="27"
     inkscape:window-maximized="1"
     units="mm" />
  <metadata
     id="metadata3798">
    <rdf:RDF>
      <cc:Work
         rdf:about="">
        <dc:format>image/svg+xml</dc:format>
        <dc:type
           rdf:resource="http://purl.org/dc/dcmitype/StillImage" />
        <dc:title />
      </cc:Work>
    </rdf:RDF>
  </metadata>
  <g
     inkscape:label="Layer 1"
     inkscape:groupmode="layer"
     id="layer1"
     transform="translate(0,-134.64566)">
    <g
       transform="scale(1.1132709,0.89825399)"
       style="font-size:66.55255127px;font-style:normal;font-weight:normal;line-height:125%;letter-spacing:0px;word-spacing:0px;fill:#000000;fill-opacity:1;stroke:none;font-family:Sans"
       id="text2985">
      <path
         d="m 63.183459,183.60762 0,17.77551 10.528822,0 c 3.531244,1e-5 6.141783,-0.72575 7.831624,-2.17726 1.711441,-1.47316 2.567178,-3.7154 2.567212,-6.72674 -3.4e-5,-3.03298 -0.855771,-5.26439 -2.567212,-6.69425 -1.689841,-1.45149 -4.30038,-2.17724 -7.831624,-2.17726 l -10.528822,0 m 0,-19.95277 0,14.62337 9.716413,0 c 3.206282,3e-5 5.589346,-0.59574 7.1492,-1.7873 1.581458,-1.21317 2.372202,-3.05463 2.372234,-5.52439 -3.2e-5,-2.44802 -0.790776,-4.27864 -2.372234,-5.49188 -1.559854,-1.21316 -3.942918,-1.81975 -7.1492,-1.8198 l -9.716413,0 m -6.564265,-5.39439 16.768123,0 c 5.004412,5e-5 8.860643,1.03993 11.568706,3.11965 2.707992,2.07981 4.062006,5.03697 4.062045,8.8715 -3.9e-5,2.96804 -0.693294,5.32944 -2.079767,7.08421 -1.386547,1.75483 -3.422984,2.84888 -6.109316,3.28213 3.227938,0.69329 5.730155,2.14479 7.506659,4.35452 1.798092,2.18811 2.697158,4.92863 2.697199,8.22158 -4.1e-5,4.33285 -1.473208,7.67998 -4.419506,10.04137 -2.94637,2.36141 -7.138397,3.54211 -12.576092,3.54211 l -17.418051,0 0,-48.51707"
         style="font-variant:normal;font-stretch:normal;fill:#000000;font-family:DokChampa;-inkscape-font-specification:DokChampa"
         id="path8020" />
      <path
         d="m 102.24409,158.26046 6.56426,0 0,42.99269 23.62486,0 0,5.52438 -30.18912,0 0,-48.51707"
         style="font-variant:normal;font-stretch:normal;fill:#000000;font-family:DokChampa;-inkscape-font-specification:DokChampa"
         id="path8022" />
      <path
         d="m 157.06545,164.72723 -8.904,24.1448 17.8405,0 -8.9365,-24.1448 m -3.70458,-6.46677 7.44167,0 18.49043,48.51707 -6.82424,0 -4.4195,-12.44611 -21.87006,0 -4.4195,12.44611 -6.92173,0 18.52293,-48.51707"
         style="font-variant:normal;font-stretch:normal;fill:#000000;font-family:DokChampa;-inkscape-font-specification:DokChampa"
         id="path8024" />
      <path
         d="m 221.50573,161.99754 0,6.92172 c -2.20979,-2.05806 -4.57119,-3.59622 -7.08421,-4.61448 -2.49142,-1.01818 -5.14528,-1.52728 -7.96161,-1.52733 -5.54606,5e-5 -9.79225,1.70069 -12.73857,5.10193 -2.94635,3.37966 -4.41952,8.27577 -4.4195,14.68836 -2e-5,6.39097 1.47315,11.28708 4.4195,14.68835 2.94632,3.37963 7.19251,5.06944 12.73857,5.06944 2.81633,0 5.47019,-0.50911 7.96161,-1.52733 2.51302,-1.01822 4.87442,-2.55638 7.08421,-4.61449 l 0,6.85674 c -2.29645,1.55982 -4.73367,2.72969 -7.31168,3.5096 -2.55641,0.77991 -5.26444,1.16987 -8.12409,1.16987 -7.3442,0 -13.12855,-2.24225 -17.35306,-6.72675 -4.22453,-4.50615 -6.33679,-10.64795 -6.33679,-18.42543 0,-7.7991 2.11226,-13.94091 6.33679,-18.42544 4.22451,-4.50612 10.00886,-6.7592 17.35306,-6.75924 2.90298,4e-5 5.63267,0.39 8.18908,1.16986 2.57801,0.7583 4.99357,1.9065 7.24669,3.44462"
         style="font-variant:normal;font-stretch:normal;fill:#000000;font-family:DokChampa;-inkscape-font-specification:DokChampa"
         id="path8026" />
      <path
         d="m 231.70959,158.26046 6.56426,0 0,20.5052 21.77257,-20.5052 8.44905,0 -24.0798,22.61747 25.80211,25.8996 -8.64404,0 -23.29989,-23.36489 0,23.36489 -6.56426,0 0,-48.51707"
         style="font-variant:normal;font-stretch:normal;fill:#000000;font-family:DokChampa;-inkscape-font-specification:DokChampa"
         id="path8028" />
    </g>
    <path
       style="fill:#000000;fill-opacity:1;stroke:#000000;stroke-width:0.17294738px;stroke-linecap:butt;stroke-linejoin:miter;stroke-opacity:1"
       d="m 1.4998552,141.98669 57.2080138,0.44922 -28.943724,44.02336 z"
       id="path3003"
       inkscape:connector-curvature="0" />
  </g>
</svg>
